<svg width="80" height="42" viewBox="0 0 80 42" fill="none" xmlns="http://www.w3.org/2000/svg">
<rect x="0.5" y="0.5" width="79" height="41" rx="9.5" fill="white"/>
<rect x="0.5" y="0.5" width="79" height="41" rx="9.5" stroke="#D8DADC"/>
<path d="M45.8169 21.534C45.8081 19.9008 46.537 18.668 48.0122 17.7601C47.1868 16.563 45.9399 15.9043 44.2934 15.7753C42.7348 15.6506 41.0313 16.6965 40.4078 16.6965C39.7492 16.6965 38.2389 15.8198 37.0535 15.8198C34.6036 15.8598 32 17.8002 32 21.7477C32 22.9137 32.2107 24.1182 32.6322 25.3614C33.1942 26.9947 35.2226 31 37.3389 30.9332C38.4453 30.9065 39.2268 30.1366 40.6669 30.1366C42.063 30.1366 42.7875 30.9332 44.0212 30.9332C46.155 30.9021 47.9902 27.2617 48.5259 25.6239C45.6633 24.2577 45.8169 21.6186 45.8169 21.534ZM43.3319 14.2265C44.5305 12.7846 44.4207 11.4717 44.3856 11C43.3275 11.0623 42.1026 11.7299 41.4045 12.5532C40.6361 13.4344 40.1839 14.5247 40.2805 15.753C41.4264 15.842 42.4714 15.2457 43.3319 14.2265Z" fill="black"/>
</svg>
