<svg width="12" height="12" viewBox="0 0 12 12" fill="none" xmlns="http://www.w3.org/2000/svg">
<g clip-path="url(#clip0_70_986)">
<path d="M2.5 7.292H2.875C2.87496 7.21907 2.85366 7.14773 2.81369 7.08672C2.77373 7.02571 2.71684 6.97767 2.65 6.9485L2.5 7.292ZM9.5 7.292L9.35 6.9485C9.28316 6.97767 9.22627 7.02571 9.18631 7.08672C9.14634 7.14773 9.12504 7.21907 9.125 7.292H9.5ZM7.875 3.5C7.875 3.59946 7.91451 3.69484 7.98484 3.76517C8.05516 3.83549 8.15054 3.875 8.25 3.875C8.34946 3.875 8.44484 3.83549 8.51517 3.76517C8.58549 3.69484 8.625 3.59946 8.625 3.5H7.875ZM3.375 3.5C3.375 3.59946 3.41451 3.69484 3.48483 3.76517C3.55516 3.83549 3.65054 3.875 3.75 3.875C3.84946 3.875 3.94484 3.83549 4.01516 3.76517C4.08549 3.69484 4.125 3.59946 4.125 3.5H3.375ZM3.5 2.125C2.7375 2.125 2.00624 2.4279 1.46707 2.96707C0.927901 3.50624 0.625 4.2375 0.625 5H1.375C1.375 4.43641 1.59888 3.89591 1.9974 3.4974C2.39591 3.09888 2.93641 2.875 3.5 2.875V2.125ZM8.5 2.875C9.06359 2.875 9.60409 3.09888 10.0026 3.4974C10.4011 3.89591 10.625 4.43641 10.625 5H11.375C11.375 4.2375 11.0721 3.50624 10.5329 2.96707C9.99376 2.4279 9.2625 2.125 8.5 2.125V2.875ZM7.5 10.625H4.5V11.375H7.5V10.625ZM4.5 10.625C4.018 10.625 3.694 10.624 3.4525 10.5915C3.222 10.5605 3.123 10.507 3.058 10.4415L2.528 10.9725C2.7555 11.2 3.039 11.2925 3.353 11.335C3.656 11.376 4.039 11.375 4.5 11.375V10.625ZM2.125 9C2.125 9.461 2.124 9.844 2.165 10.147C2.207 10.461 2.3 10.7445 2.5275 10.972L3.058 10.442C2.993 10.377 2.9395 10.278 2.908 10.047C2.876 9.806 2.875 9.482 2.875 9H2.125ZM9.125 9C9.125 9.482 9.124 9.806 9.0915 10.0475C9.0605 10.278 9.007 10.377 8.9415 10.442L9.4725 10.972C9.7 10.7445 9.7925 10.461 9.835 10.147C9.876 9.844 9.875 9.461 9.875 9H9.125ZM7.5 11.375C7.961 11.375 8.344 11.376 8.647 11.335C8.961 11.293 9.245 11.2 9.4725 10.972L8.942 10.442C8.877 10.507 8.778 10.5605 8.547 10.592C8.306 10.624 7.982 10.625 7.5 10.625V11.375ZM3.5 2.875C3.60667 2.875 3.71133 2.88267 3.814 2.898L3.9235 2.156C3.78324 2.13568 3.64172 2.12532 3.5 2.125V2.875ZM6 0.625C5.45135 0.624851 4.91645 0.796615 4.47045 1.11616C4.02446 1.4357 3.6898 1.88695 3.5135 2.4065L4.2235 2.6475C4.34945 2.27632 4.58856 1.95395 4.90721 1.7257C5.22586 1.49745 5.60804 1.3748 6 1.375V0.625ZM3.5135 2.4065C3.42199 2.67832 3.37522 2.96319 3.375 3.25H4.125C4.125 3.0385 4.16 2.836 4.224 2.6475L3.5135 2.4065ZM8.5 2.125C8.35633 2.125 8.21517 2.13533 8.0765 2.156L8.1865 2.898C8.29023 2.88212 8.39506 2.87443 8.5 2.875V2.125ZM6 1.375C6.39188 1.37491 6.77394 1.4976 7.09249 1.72585C7.41104 1.95409 7.65008 2.2764 7.776 2.6475L8.486 2.4065C8.30973 1.88703 7.97514 1.43583 7.52925 1.1163C7.08336 0.796768 6.54856 0.624955 6 0.625V1.375ZM7.776 2.6475C7.84 2.836 7.875 3.0385 7.875 3.25H8.625C8.625 2.9555 8.576 2.672 8.486 2.4065L7.776 2.6475ZM2.875 9V7.292H2.125V9H2.875ZM2.65 6.9485C2.2709 6.78305 1.94833 6.51055 1.72185 6.16444C1.49537 5.81832 1.37482 5.41363 1.375 5H0.625C0.624899 5.5595 0.788053 6.10687 1.09446 6.575C1.40087 7.04314 1.83721 7.4117 2.35 7.6355L2.65 6.9485ZM9.125 7.292V9H9.875V7.292H9.125ZM10.625 5C10.6252 5.41363 10.5046 5.81832 10.2782 6.16444C10.0517 6.51055 9.7291 6.78305 9.35 6.9485L9.65 7.6355C10.1628 7.4117 10.5991 7.04314 10.9055 6.575C11.2119 6.10687 11.3751 5.5595 11.375 5H10.625ZM7.875 3.25V3.5H8.625V3.25H7.875ZM3.375 3.25V3.5H4.125V3.25H3.375Z" fill="#808080"/>
<path opacity="0.5" d="M2.5 9H9.5" stroke="#808080" stroke-width="1.5" stroke-linecap="round" stroke-linejoin="round"/>
</g>
<defs>
<clipPath id="clip0_70_986">
<rect width="12" height="12" fill="white"/>
</clipPath>
</defs>
</svg>
