<svg width="22" height="22" viewBox="0 0 22 22" fill="none" xmlns="http://www.w3.org/2000/svg">
<rect width="22" height="22" rx="5" fill="#FF4949"/>
<path d="M10.0025 5.25166L5.06166 13.5C4.95979 13.6764 4.90589 13.8764 4.90532 14.0801C4.90475 14.2838 4.95753 14.4842 5.05841 14.6611C5.15929 14.8381 5.30475 14.9856 5.48033 15.0889C5.6559 15.1922 5.85546 15.2478 6.05916 15.25H15.9408C16.1445 15.2478 16.3441 15.1922 16.5197 15.0889C16.6952 14.9856 16.8407 14.8381 16.9416 14.6611C17.0425 14.4842 17.0952 14.2838 17.0947 14.0801C17.0941 13.8764 17.0402 13.6764 16.9383 13.5L11.9975 5.25166C11.8935 5.08023 11.7471 4.93848 11.5724 4.84011C11.3976 4.74174 11.2005 4.69006 11 4.69006C10.7995 4.69006 10.6024 4.74174 10.4276 4.84011C10.2529 4.93848 10.1065 5.08023 10.0025 5.25166Z" stroke="white" stroke-width="0.7" stroke-linecap="round" stroke-linejoin="round"/>
<path d="M11 8.25V10.5833" stroke="white" stroke-width="0.7" stroke-linecap="round" stroke-linejoin="round"/>
<path d="M11 12.9166H11.0063" stroke="white" stroke-width="0.7" stroke-linecap="round" stroke-linejoin="round"/>
</svg>
