<svg width="80" height="42" viewBox="0 0 80 42" fill="none" xmlns="http://www.w3.org/2000/svg">
<rect x="0.5" y="0.5" width="79" height="41" rx="9.5" fill="white"/>
<rect x="0.5" y="0.5" width="79" height="41" rx="9.5" stroke="#D8DADC"/>
<g clip-path="url(#clip0_7_312)">
<path d="M49.174 20.7105C49.174 19.9317 49.1121 19.3633 48.9782 18.7739H40.2725V22.2893H45.3825C45.2796 23.1629 44.7232 24.4786 43.4869 25.3627L43.4695 25.4804L46.2221 27.6589L46.4128 27.6784C48.1643 26.0258 49.174 23.5945 49.174 20.7105Z" fill="#4285F4"/>
<path d="M40.2724 29.9729C42.7759 29.9729 44.8776 29.1308 46.4128 27.6783L43.4868 25.3627C42.7038 25.9205 41.6529 26.31 40.2724 26.31C37.8204 26.31 35.7392 24.6575 34.9974 22.3735L34.8886 22.383L32.0264 24.6459L31.989 24.7522C33.5138 27.8467 36.6458 29.9729 40.2724 29.9729Z" fill="#34A853"/>
<path d="M34.9974 22.3735C34.8017 21.7841 34.6884 21.1525 34.6884 20.5C34.6884 19.8474 34.8017 19.2159 34.9871 18.6264L34.9819 18.5009L32.0839 16.2016L31.989 16.2477C31.3606 17.5318 31 18.9738 31 20.5C31 22.0262 31.3606 23.4681 31.989 24.7522L34.9974 22.3735Z" fill="#FBBC05"/>
<path d="M40.2724 14.69C42.0135 14.69 43.188 15.4583 43.8577 16.1004L46.4746 13.4901C44.8674 11.9639 42.7759 11.0272 40.2724 11.0272C36.6458 11.0272 33.5138 13.1533 31.989 16.2477L34.9871 18.6265C35.7392 16.3425 37.8204 14.69 40.2724 14.69Z" fill="#EB4335"/>
</g>
<defs>
<clipPath id="clip0_7_312">
<rect x="31" y="11" width="18.1739" height="19" rx="9.08696" fill="white"/>
</clipPath>
</defs>
</svg>
