<svg width="22" height="22" viewBox="0 0 22 22" fill="none" xmlns="http://www.w3.org/2000/svg">
<rect width="22" height="22" rx="5" fill="#541690"/>
<path d="M13.625 9.48331L8.375 6.45581" stroke="white" stroke-width="0.7" stroke-linecap="round" stroke-linejoin="round"/>
<path d="M16.25 13.3333V8.66665C16.2498 8.46206 16.1958 8.26112 16.0934 8.084C15.991 7.90687 15.8438 7.75978 15.6667 7.65748L11.5833 5.32415C11.406 5.22175 11.2048 5.16785 11 5.16785C10.7952 5.16785 10.594 5.22175 10.4167 5.32415L6.33333 7.65748C6.15615 7.75978 6.00899 7.90687 5.9066 8.084C5.80422 8.26112 5.75021 8.46206 5.75 8.66665V13.3333C5.75021 13.5379 5.80422 13.7388 5.9066 13.916C6.00899 14.0931 6.15615 14.2402 6.33333 14.3425L10.4167 16.6758C10.594 16.7782 10.7952 16.8321 11 16.8321C11.2048 16.8321 11.406 16.7782 11.5833 16.6758L15.6667 14.3425C15.8438 14.2402 15.991 14.0931 16.0934 13.916C16.1958 13.7388 16.2498 13.5379 16.25 13.3333Z" stroke="white" stroke-width="0.7" stroke-linecap="round" stroke-linejoin="round"/>
<path d="M5.9075 8.06006L11 11.0059L16.0925 8.06006" stroke="white" stroke-width="0.7" stroke-linecap="round" stroke-linejoin="round"/>
<path d="M11 16.88V11" stroke="white" stroke-width="0.7" stroke-linecap="round" stroke-linejoin="round"/>
</svg>
