<svg width="106" height="106" viewBox="0 0 106 106" fill="none" xmlns="http://www.w3.org/2000/svg">
<rect width="106" height="106" rx="40" fill="url(#paint0_linear_5_20)"/>
<path d="M69.2533 22.6133H37.4533C35.7666 22.6133 34.1489 23.2834 32.9561 24.4761C31.7634 25.6689 31.0933 27.2866 31.0933 28.9733V44.8733H75.6133V28.9733C75.6133 27.2866 74.9433 25.6689 73.7505 24.4761C72.5578 23.2834 70.9401 22.6133 69.2533 22.6133ZM31.0933 76.6733C31.0933 78.3601 31.7634 79.9778 32.9561 81.1705C34.1489 82.3633 35.7666 83.0333 37.4533 83.0333V86.2133H43.8133V83.0333H62.8933V86.2133H69.2533V83.0333C70.9401 83.0333 72.5578 82.3633 73.7505 81.1705C74.9433 79.9778 75.6133 78.3601 75.6133 76.6733V48.0533H31.0933V76.6733ZM66.0733 32.1533V38.5133H59.7133V32.1533H66.0733ZM66.0733 54.4133V63.9533H59.7133V54.4133H66.0733Z" fill="white"/>
<defs>
<linearGradient id="paint0_linear_5_20" x1="0" y1="53" x2="106" y2="53" gradientUnits="userSpaceOnUse">
<stop stop-color="#E2852E"/>
<stop offset="1" stop-color="#F5C857"/>
</linearGradient>
</defs>
</svg>
