<svg width="10" height="10" viewBox="0 0 10 10" fill="none" xmlns="http://www.w3.org/2000/svg">
<g clip-path="url(#clip0_44_387)">
<path d="M3.33333 1.25H2.08333C1.86232 1.25 1.65036 1.3378 1.49408 1.49408C1.3378 1.65036 1.25 1.86232 1.25 2.08333V3.33333M8.75 3.33333V2.08333C8.75 1.86232 8.6622 1.65036 8.50592 1.49408C8.34964 1.3378 8.13768 1.25 7.91667 1.25H6.66667M6.66667 8.75H7.91667C8.13768 8.75 8.34964 8.6622 8.50592 8.50592C8.6622 8.34964 8.75 8.13768 8.75 7.91667V6.66667M1.25 6.66667V7.91667C1.25 8.13768 1.3378 8.34964 1.49408 8.50592C1.65036 8.6622 1.86232 8.75 2.08333 8.75H3.33333" stroke="black" stroke-linecap="round" stroke-linejoin="round"/>
</g>
<defs>
<clipPath id="clip0_44_387">
<rect width="10" height="10" fill="white"/>
</clipPath>
</defs>
</svg>
